<svg xmlns="http://www.w3.org/2000/svg" width="32" height="32" viewBox="0 0 32 32" fill="none">
  <g clip-path="url(#clip0_226_3)">
    <path fill-rule="evenodd" clip-rule="evenodd" d="M6 32C4.89543 32 4 31.1046 4 30C4 28.8954 4.89543 28 6 28C7.10457 28 8 28.8954 8 30C8 31.1046 7.10457 32 6 32ZM24 32C22.8954 32 22 31.1046 22 30C22 28.8954 22.8954 28 24 28C25.1046 28 26 28.8954 26 30C26 31.1046 25.1046 32 24 32Z" fill="#F5BA75"/>
    <path fill-rule="evenodd" clip-rule="evenodd" d="M4 6.99743V2H0.990778C0.450975 2 0 1.55228 0 1C0 0.443865 0.443586 0 0.990778 0H5.00922C5.27864 0 5.52594 0.111531 5.71154 0.295022C5.89026 0.475207 6 0.72323 6 0.99703V5H30.0088C31.1001 5 32 5.8918 32 6.99188V18.0081C32 19.1066 31.1085 20 30.0088 20H6V22.0085C6 22.5579 6.44429 23 7.00759 23H30.8589C31.4112 23 31.8589 23.4477 31.8589 24C31.8589 24.5523 31.4112 25 30.8589 25H7.00759C5.34197 25 4 23.6648 4 22.0085V13.3874V6.99743ZM30.0088 7C29.9996 7 30 18.0081 30 18.0081C30 18.003 5.99124 18 5.99124 18C6.00042 18 6 6.99188 6 6.99188C6 6.99702 30.0088 7 30.0088 7Z" fill="#F5BA75"/>
  </g>
  <defs>
    <clipPath id="clip0_226_3">
      <rect width="32" height="32" fill="white"/>
    </clipPath>
  </defs>
</svg>