    <svg xmlns="http://www.w3.org/2000/svg" width="24" height="19" viewBox="0 0 24 19" fill="none">
    <g clip-path="url(#clip0_136_2)">
        <path d="M0.659377 15.9588L6.16533 11.5996C6.98572 12.6097 8.07143 13.4688 9.34732 14.1183L3.84092 18.4775C2.96187 19.1733 1.5366 19.1733 0.659425 18.4775C-0.219678 17.7829 -0.219676 16.6546 0.659377 15.9588Z" fill="#B62547"/>
        <path d="M5.99975 7.12501C5.99975 3.19032 10.0294 0 14.9997 0C19.9698 0 23.9997 3.19032 23.9997 7.12501C23.9997 11.0597 19.9698 14.2499 14.9997 14.2499C10.0294 14.2499 5.99975 11.0597 5.99975 7.12501ZM14.9997 12.4686C18.7218 12.4686 21.7496 10.0718 21.7496 7.12504C21.7496 4.17832 18.7218 1.78134 14.9997 1.78134C11.2776 1.78134 8.24957 4.17832 8.24957 7.12504C8.24957 10.0718 11.2776 12.4686 14.9997 12.4686Z" fill="#B62547"/>
        <path d="M20.2499 7.12495H18.7501C18.7501 5.48802 17.0676 4.15622 15 4.15622V2.96875C17.8944 2.96875 20.2499 4.8335 20.2499 7.12495Z" fill="#B62547"/>
    </g>
    <defs>
        <clipPath id="clip0_136_2">
        <rect width="24" height="19" fill="white" transform="matrix(-1 0 0 1 24 0)"/>
        </clipPath>
    </defs>
    </svg>