<svg xmlns="http://www.w3.org/2000/svg" width="20" height="20" viewBox="0 0 25 25" fill="none">
  <g clip-path="url(#clip0_268_33)">
    <path d="M12.5 0C5.60667 0 0 5.60667 0 12.5C0 19.3933 5.60667 25 12.5 25C19.3933 25 25 19.3933 25 12.5C25 5.60667 19.3933 0 12.5 0ZM12.5 23.3333C6.52667 23.3333 1.66667 18.4733 1.66667 12.5C1.66667 6.52667 6.52667 1.66667 12.5 1.66667C18.4733 1.66667 23.3333 6.52667 23.3333 12.5C23.3333 18.4733 18.4733 23.3333 12.5 23.3333Z" fill="#B62547"/>
    <path d="M19.1666 11.666H5.83325V13.3327H19.1666V11.666Z" fill="#B62547"/>
  </g>
  <defs>
    <clipPath id="clip0_268_33">
      <rect width="25" height="25" fill="white"/>
    </clipPath>
  </defs>
</svg>