<svg xmlns="http://www.w3.org/2000/svg" width="20" height="20" viewBox="0 0 30 30" fill="none">
  <path d="M24.2188 9.12696C24.2188 8.86817 24.4287 8.6582 24.6875 8.6582C24.9463 8.6582 25.1563 8.86911 25.1563 9.12696V27.1094C25.1563 27.9033 24.8301 28.626 24.3066 29.1504C23.7832 29.6738 23.0595 30 22.2656 30H7.73438C6.94044 30 6.21584 29.6738 5.69335 29.1504C5.16992 28.627 4.84375 27.9044 4.84375 27.1094V9.12696C4.84375 8.86817 5.05371 8.6582 5.31247 8.6582C5.57127 8.6582 5.78123 8.86911 5.78123 9.12696V27.1094C5.78123 27.6446 6.00197 28.1338 6.35547 28.4873C6.70897 28.8408 7.19825 29.0625 7.7334 29.0625H22.2647C22.7999 29.0625 23.2881 28.8408 23.6417 28.4873C23.9962 28.1328 24.2168 27.6445 24.2168 27.1104V9.12696H24.2188Z" fill="#9F1939"/>
  <path d="M11.5039 25.8985C11.5039 26.1573 11.294 26.3672 11.0352 26.3672C10.7764 26.3672 10.5664 26.1573 10.5664 25.8985V9.24806C10.5664 8.98926 10.7764 8.7793 11.0352 8.7793C11.294 8.7793 11.5039 8.98926 11.5039 9.24806V25.8985Z" fill="#9F1939"/>
  <path d="M15.4687 25.8985C15.4687 26.1573 15.2588 26.3672 15 26.3672C14.7412 26.3672 14.5312 26.1573 14.5312 25.8985V9.24806C14.5312 8.98926 14.7412 8.7793 15 8.7793C15.2588 8.7793 15.4687 8.98926 15.4687 9.24806V25.8985Z" fill="#9F1939"/>
  <path d="M19.4345 25.8985C19.4345 26.1573 19.2246 26.3672 18.9658 26.3672C18.707 26.3672 18.4971 26.1573 18.4971 25.8985V9.24806C18.4971 8.98926 18.707 8.7793 18.9658 8.7793C19.2246 8.7793 19.4345 8.98926 19.4345 9.24806V25.8985Z" fill="#9F1939"/>
  <path d="M11.2305 2.89063C11.2305 3.14942 11.0205 3.35939 10.7617 3.35939C10.5029 3.35939 10.293 3.14942 10.293 2.89063C10.293 2.09471 10.6182 1.37209 11.1416 0.848654C11.6651 0.325182 12.3877 0 13.1836 0H16.8164C17.6114 0 18.334 0.326168 18.8574 0.849599C19.3808 1.37303 19.707 2.09763 19.707 2.89063C19.707 3.14942 19.4971 3.35939 19.2383 3.35939C18.9795 3.35939 18.7696 3.14942 18.7696 2.89063C18.7696 2.35548 18.5489 1.86621 18.1953 1.51271C17.8418 1.15916 17.3526 0.937482 16.8174 0.937482H13.1846C12.6485 0.937482 12.1602 1.15817 11.8057 1.51172C11.4511 1.86621 11.2305 2.35449 11.2305 2.89063Z" fill="#9F1939"/>
  <path d="M4.10155 4.23828H25.8985C26.3584 4.23828 26.7783 4.42675 27.083 4.73146L27.085 4.73343C27.3897 5.0381 27.5781 5.45803 27.5781 5.918V7.12895C27.5781 7.38771 27.3682 7.59767 27.1094 7.59767H27.0967H2.89064C2.63184 7.59767 2.42188 7.38771 2.42188 7.12895V7.11724V5.918C2.42188 5.45902 2.61034 5.0381 2.91505 4.73343L2.91703 4.73146C3.2217 4.42679 3.64257 4.23828 4.10155 4.23828ZM25.8985 5.1758H4.10155C3.89746 5.1758 3.71093 5.25884 3.57812 5.39259L3.57615 5.39457C3.44235 5.52733 3.35936 5.71292 3.35936 5.918V6.66019H26.6397V5.918C26.6397 5.71391 26.5566 5.52738 26.4229 5.39457L26.4209 5.39259C26.2882 5.25884 26.1026 5.1758 25.8985 5.1758Z" fill="#9F1939"/>
</svg>