<svg xmlns="http://www.w3.org/2000/svg" width="33" height="30" viewBox="0 0 33 30" fill="none">
  <path d="M16.5 15C17.9277 15 19.3234 14.6151 20.5105 13.894C21.6976 13.1729 22.6229 12.148 23.1693 10.9489C23.7156 9.74972 23.8586 8.43022 23.58 7.15722C23.3015 5.88422 22.614 4.7149 21.6044 3.79711C20.5949 2.87933 19.3086 2.25432 17.9083 2.0011C16.508 1.74788 15.0566 1.87784 13.7375 2.37454C12.4184 2.87124 11.291 3.71238 10.4978 4.79157C9.70462 5.87077 9.28125 7.13956 9.28125 8.4375C9.28125 10.178 10.0418 11.8472 11.3956 13.0779C12.7494 14.3086 14.5855 15 16.5 15ZM16.5 3.75C17.5198 3.75 18.5167 4.02492 19.3647 4.53999C20.2126 5.05506 20.8735 5.78715 21.2638 6.64367C21.654 7.5002 21.7561 8.4427 21.5572 9.35199C21.3582 10.2613 20.8671 11.0965 20.146 11.7521C19.4249 12.4076 18.5062 12.8541 17.5059 13.0349C16.5057 13.2158 15.469 13.123 14.5268 12.7682C13.5846 12.4134 12.7793 11.8126 12.2127 11.0417C11.6462 10.2709 11.3438 9.3646 11.3438 8.4375C11.3438 7.1943 11.887 6.00202 12.854 5.12294C13.821 4.24386 15.1325 3.75 16.5 3.75Z" fill="#B62547"/>
  <path d="M17.5312 16.875H15.4688C12.4602 16.875 9.57487 17.9615 7.44751 19.8955C5.32014 21.8294 4.125 24.4525 4.125 27.1875C4.125 27.4361 4.23365 27.6746 4.42705 27.8504C4.62044 28.0262 4.88275 28.125 5.15625 28.125H27.8438C28.1173 28.125 28.3796 28.0262 28.573 27.8504C28.7664 27.6746 28.875 27.4361 28.875 27.1875C28.875 24.4525 27.6799 21.8294 25.5525 19.8955C23.4251 17.9615 20.5398 16.875 17.5312 16.875ZM6.24937 26.25C6.50295 24.1881 7.58331 22.2834 9.28401 20.8999C10.9847 19.5164 13.1865 18.751 15.4688 18.75H17.5312C19.8135 18.751 22.0153 19.5164 23.716 20.8999C25.4167 22.2834 26.497 24.1881 26.7506 26.25H6.24937Z" fill="#B62547"/>
</svg>